<svg width="80" height="80" viewBox="0 0 80 80" fill="none" xmlns="http://www.w3.org/2000/svg">
<path d="M0 40C0 17.9086 17.9086 0 40 0C62.0914 0 80 17.9086 80 40C80 62.0914 62.0914 80 40 80C17.9086 80 0 62.0914 0 40Z" fill="#03A0F1" fill-opacity="0.1"/>
<path opacity="0.4" d="M49.875 56.4375H31.125C25.5 56.4375 21.75 53.625 21.75 47.0625V33.9375C21.75 27.375 25.5 24.5625 31.125 24.5625H49.875C55.5 24.5625 59.25 27.375 59.25 33.9375V47.0625C59.25 53.625 55.5 56.4375 49.875 56.4375Z" fill="#03A0F1"/>
<path d="M40.5 42.1312C38.925 42.1312 37.3313 41.6437 36.1125 40.6499L30.2438 35.9624C29.6438 35.4749 29.5313 34.5937 30.0188 33.9937C30.5063 33.3937 31.3875 33.2812 31.9875 33.7687L37.8563 38.4562C39.2813 39.5999 41.7 39.5999 43.125 38.4562L48.9938 33.7687C49.5938 33.2812 50.4938 33.3749 50.9625 33.9937C51.45 34.5937 51.3563 35.4937 50.7375 35.9624L44.8688 40.6499C43.6688 41.6437 42.075 42.1312 40.5 42.1312Z" fill="#03A0F1"/>
</svg>
