<svg width="80" height="80" viewBox="0 0 80 80" fill="none" xmlns="http://www.w3.org/2000/svg">
<path d="M0 40C0 17.9086 17.9086 0 40 0C62.0914 0 80 17.9086 80 40C80 62.0914 62.0914 80 40 80C17.9086 80 0 62.0914 0 40Z" fill="#03A0F1" fill-opacity="0.15"/>
<path opacity="0.4" d="M39.773 44.6437L33.6417 50.775C32.9667 50.175 32.3105 49.5562 31.673 48.9187C29.7417 46.9687 27.998 44.925 26.4417 42.7875C24.9042 40.65 23.6667 38.5125 22.7667 36.3938C21.8667 34.2563 21.4167 32.2125 21.4167 30.2625C21.4167 28.9875 21.6417 27.7687 22.0917 26.6437C22.5417 25.5 23.2542 24.45 24.248 23.5125C25.448 22.3313 26.7605 21.75 28.148 21.75C28.673 21.75 29.198 21.8625 29.6667 22.0875C30.1542 22.3125 30.5855 22.65 30.923 23.1375L35.273 29.2687C35.6105 29.7375 35.8542 30.1687 36.023 30.5812C36.1917 30.975 36.2855 31.3687 36.2855 31.725C36.2855 32.175 36.1542 32.625 35.8917 33.0562C35.648 33.4875 35.2917 33.9375 34.8417 34.3875L33.4167 35.8687C33.2105 36.075 33.1167 36.3187 33.1167 36.6187C33.1167 36.7687 33.1355 36.9 33.173 37.05C33.2292 37.2 33.2855 37.3125 33.323 37.425C33.6605 38.0437 34.2417 38.85 35.0667 39.825C35.9105 40.8 36.8105 41.7937 37.7855 42.7875C38.4605 43.4437 39.1167 44.0812 39.773 44.6437Z" fill="#03A0F1"/>
<path d="M58.8605 52.3687C58.8605 52.8937 58.7667 53.4375 58.5792 53.9625C58.523 54.1125 58.4667 54.2625 58.3917 54.4125C58.073 55.0875 57.6605 55.725 57.1167 56.325C56.198 57.3375 55.1855 58.0687 54.0417 58.5375C54.023 58.5375 54.0042 58.5562 53.9855 58.5562C52.8792 59.0062 51.6792 59.25 50.3855 59.25C48.473 59.25 46.4292 58.8 44.273 57.8812C42.1167 56.9625 39.9605 55.725 37.823 54.1687C37.0917 53.625 36.3605 53.0812 35.6667 52.5L41.798 46.3687C42.323 46.7625 42.7917 47.0625 43.1855 47.2687C43.2792 47.3062 43.3917 47.3625 43.523 47.4187C43.673 47.475 43.823 47.4937 43.9917 47.4937C44.3105 47.4937 44.5542 47.3812 44.7605 47.175L46.1855 45.7687C46.6542 45.3 47.1042 44.9437 47.5355 44.7187C47.9667 44.4562 48.398 44.325 48.8667 44.325C49.223 44.325 49.598 44.4 50.0105 44.5687C50.423 44.7375 50.8542 44.9812 51.323 45.3L57.5292 49.7062C58.0167 50.0437 58.3542 50.4374 58.5605 50.9062C58.748 51.3749 58.8605 51.8437 58.8605 52.3687Z" fill="#03A0F1"/>
</svg>
